<?xml version="1.0" encoding="utf-8"?>
<!-- Generator: Adobe Illustrator 26.3.1, SVG Export Plug-In . SVG Version: 6.00 Build 0)  -->
<svg version="1.1" id="Layer_2_00000122714877414229199390000005605738751286075031_"
	 xmlns="http://www.w3.org/2000/svg" xmlns:xlink="http://www.w3.org/1999/xlink" x="0px" y="0px" viewBox="0 0 22.9 21"
	 style="enable-background:new 0 0 22.9 21;" xml:space="preserve">
<style type="text/css">
	.st0{fill:#4E5156;}
</style>
<g id="Layer_1-2">
	<path class="st0" d="M15.9,0h0.6c0.4,0.1,0.7,0.3,1,0.6c0.3,0.3,0.5,0.6,0.6,1c1.5,5.2,3.1,10.4,4.6,15.5c0.4,1.4-0.1,2.5-1.4,2.9
		l-3,1h-0.4c-0.4-0.1-0.8-0.3-1.1-0.6c-0.3-0.3-0.5-0.7-0.6-1.2c-1-3.4-2-6.8-3-10.1C13,8.4,12.8,7.7,12.6,7l-0.1,0v11.7
		c0,0.5-0.1,1-0.4,1.3c-0.3,0.4-0.6,0.7-1.1,0.8c-0.1,0-0.3,0-0.4,0.1H7.4c-0.4-0.1-0.8-0.3-1.1-0.6c0,0,0,0,0,0c0,0,0,0-0.1,0
		s0,0-0.1,0c0,0,0,0,0,0c-0.3,0.3-0.7,0.5-1,0.5H1.7c0,0,0,0,0-0.1c-1.2-0.3-1.7-1-1.7-2.3V2.4c0-0.3,0-0.6,0.1-0.9S0.4,1,0.6,0.8
		C0.8,0.6,1,0.4,1.2,0.3c0.3-0.1,0.5-0.2,0.8-0.1h2.7c0.5,0,0.9,0.1,1.3,0.5c0.2,0.1,0.3,0.1,0.4,0c0.3-0.3,0.8-0.4,1.2-0.4h2.8
		c0.5,0,1,0.1,1.3,0.5c0.4,0.6,0.8,0.5,1.3,0.3C14.1,0.6,15,0.3,15.9,0L15.9,0z M6.8,10.6v8.1c0,0.8,0.3,1.1,1,1.1h2.4
		c0.9,0,1.2-0.3,1.2-1.3V2.6c0-0.9-0.3-1.2-1.1-1.2H7.9c-0.8,0-1.1,0.3-1.1,1.2L6.8,10.6L6.8,10.6z M16.2,1.2c-0.1,0-0.2,0-0.3,0.1
		l-2.5,0.9c-0.7,0.2-0.8,0.6-0.6,1.3c0.3,1.1,0.7,2.2,1,3.3c1.2,4.1,2.4,8.1,3.6,12.2c0.2,0.7,0.6,0.9,1.2,0.7l2.5-0.8
		c0.7-0.2,0.9-0.6,0.7-1.3c-0.9-2.9-1.7-5.8-2.6-8.7l-2-6.8c0-0.2-0.1-0.4-0.3-0.5S16.4,1.2,16.2,1.2L16.2,1.2z M1.1,10.5v8.1
		c0,0.7,0.3,1.1,1,1.1h2.5c0.7,0,1-0.3,1-1.1V2.5c0-0.7-0.3-1-1-1H2.2c-0.8,0-1,0.3-1,1.1C1.1,5.2,1.1,7.9,1.1,10.5L1.1,10.5z"/>
	<path class="st0" d="M9.1,4.9h1.5c0.2,0,0.3,0.1,0.3,0.3c0,0.5,0,1,0,1.4c0,0.2-0.1,0.3-0.3,0.3h-3C7.4,7,7.3,7,7.3,6.7V5.2
		c0-0.2,0.1-0.3,0.3-0.3C8.1,4.9,8.6,4.9,9.1,4.9L9.1,4.9z"/>
	<path class="st0" d="M17.2,4.6c0.1,0,0.1,0.1,0.1,0.1c0.2,0.6,0.3,1.1,0.5,1.6c0,0.2,0,0.2-0.2,0.2c-1,0.3-2,0.7-3,1
		c-0.1,0.1-0.2,0-0.3-0.1c-0.2-0.5-0.3-1.1-0.5-1.6c0-0.1,0-0.2,0.1-0.2L17.2,4.6C17.2,4.6,17.2,4.6,17.2,4.6z"/>
	<path class="st0" d="M18.6,8.9c0,0.1,0,0.2-0.1,0.2c-0.7,0.2-2,0.7-2.7,0.9c-0.4,0.1-0.5,0.1-0.6-0.5C15,9,15,9,15.3,8.9
		c0.4-0.1,1-0.3,1.1-0.4c0.4-0.1,0.8-0.3,1.7-0.6c0.2-0.1,0.3,0,0.3,0.2"/>
	<path class="st0" d="M4.9,4.9c0.2,0,0.3,0.1,0.3,0.3c0,0.5,0,1,0,1.4C5.2,6.9,5.2,7,4.9,7h-3C1.7,7,1.6,7,1.6,6.7c0-0.5,0-1,0-1.5
		c0-0.3,0.1-0.3,0.3-0.3"/>
	<path class="st0" d="M2.1,9.6c-0.3,0-0.4-0.1-0.4-0.3c0-0.2,0-0.5,0-0.6c0-0.3,0.1-0.3,0.4-0.3h2.8c0.3,0,0.4,0.1,0.4,0.4
		c0,0.1,0,0.5,0,0.6c0,0.2-0.2,0.3-0.4,0.3"/>
</g>
<path class="st0" d="M7.7,9.6c-0.3,0-0.4-0.1-0.4-0.3c0-0.2,0-0.5,0-0.6c0-0.3,0.1-0.3,0.4-0.3h2.8c0.3,0,0.4,0.1,0.4,0.4
	c0,0.1,0,0.5,0,0.6c0,0.2-0.2,0.3-0.4,0.3"/>
</svg>
